{
	"asset":{
		"generator":"Khronos glTF Blender I/O v4.4.56",
		"version":"2.0"
	},
	"extensionsUsed":[
		"KHR_materials_unlit",
		"EXT_texture_webp"
	],
	"extensionsRequired":[
		"EXT_texture_webp"
	],
	"scene":0,
	"scenes":[
		{
			"name":"Scene",
			"nodes":[
				0
			]
		}
	],
	"nodes":[
		{
			"mesh":0,
			"name":"boite_pinceau",
			"rotation":[
				0,
				-0.6052468419075012,
				0,
				0.7960378527641296
			],
			"translation":[
				-1.4809374809265137,
				-1.389427900314331,
				-0.7644204497337341
			]
		}
	],
	"materials":[
		{
			"doubleSided":true,
			"extensions":{
				"KHR_materials_unlit":{}
			},
			"name":"asset_interactif",
			"pbrMetallicRoughness":{
				"baseColorTexture":{
					"index":0
				},
				"metallicFactor":0,
				"roughnessFactor":0.9
			}
		}
	],
	"meshes":[
		{
			"name":"Plane.064",
			"primitives":[
				{
					"attributes":{
						"POSITION":0,
						"NORMAL":1,
						"TEXCOORD_0":2
					},
					"indices":3,
					"material":0
				}
			]
		}
	],
	"textures":[
		{
			"extensions":{
				"EXT_texture_webp":{
					"source":0
				}
			},
			"sampler":0
		}
	],
	"images":[
		{
			"mimeType":"image/webp",
			"name":"G2_DM_assette_interactif_combined.webp",
			"uri":"tex/G2_DM_assette_interactif_combined_webp.webp"
		}
	],
	"accessors":[
		{
			"bufferView":0,
			"componentType":5126,
			"count":12346,
			"max":[
				2.3646137714385986,
				0.7865846753120422,
				0.44714561104774475
			],
			"min":[
				2.0476348400115967,
				0.6619645357131958,
				0.18378552794456482
			],
			"type":"VEC3"
		},
		{
			"bufferView":1,
			"componentType":5126,
			"count":12346,
			"type":"VEC3"
		},
		{
			"bufferView":2,
			"componentType":5126,
			"count":12346,
			"type":"VEC2"
		},
		{
			"bufferView":3,
			"componentType":5123,
			"count":21324,
			"type":"SCALAR"
		}
	],
	"bufferViews":[
		{
			"buffer":0,
			"byteLength":148152,
			"byteOffset":0,
			"target":34962
		},
		{
			"buffer":0,
			"byteLength":148152,
			"byteOffset":148152,
			"target":34962
		},
		{
			"buffer":0,
			"byteLength":98768,
			"byteOffset":296304,
			"target":34962
		},
		{
			"buffer":0,
			"byteLength":42648,
			"byteOffset":395072,
			"target":34963
		}
	],
	"samplers":[
		{
			"magFilter":9729,
			"minFilter":9987
		}
	],
	"buffers":[
		{
			"byteLength":437720,
			"uri":"G2_DM_pinceau.bin"
		}
	]
}
