{
	"asset":{
		"generator":"Khronos glTF Blender I/O v4.4.56",
		"version":"2.0"
	},
	"extensionsUsed":[
		"EXT_texture_webp"
	],
	"extensionsRequired":[
		"EXT_texture_webp"
	],
	"scene":0,
	"scenes":[
		{
			"name":"evening",
			"nodes":[
				0,
				1,
				2,
				3,
				4,
				5,
				6,
				7
			]
		}
	],
	"nodes":[
		{
			"mesh":0,
			"name":"G0_SM_sol",
			"translation":[
				5.893307685852051,
				0,
				-5.1803483963012695
			]
		},
		{
			"mesh":1,
			"name":"G0_SM_murs"
		},
		{
			"mesh":2,
			"name":"G0_SM_misc",
			"translation":[
				0.4689997434616089,
				0.6200968623161316,
				-4.905649185180664
			]
		},
		{
			"mesh":3,
			"name":"G0_SM_finitions",
			"translation":[
				4.328176498413086,
				1.4986944198608398,
				-4.307188034057617
			]
		},
		{
			"mesh":4,
			"name":"G0_SM_boiserie"
		},
		{
			"mesh":5,
			"name":"G0_fenetres",
			"translation":[
				0.4689997434616089,
				0.6200968623161316,
				-4.905649185180664
			]
		},
		{
			"mesh":6,
			"name":"G0_DM_switch",
			"translation":[
				4.409022331237793,
				1.6786057949066162,
				-3.216157913208008
			]
		},
		{
			"mesh":7,
			"name":"G0_DM_switch2",
			"translation":[
				4.409022331237793,
				1.1213388442993164,
				-3.216157913208008
			]
		}
	],
	"animations":[
		{
			"channels":[
				{
					"sampler":0,
					"target":{
						"node":6,
						"path":"translation"
					}
				}
			],
			"name":"G0_DM_switchAction",
			"samplers":[
				{
					"input":33,
					"interpolation":"LINEAR",
					"output":34
				}
			]
		},
		{
			"channels":[
				{
					"sampler":0,
					"target":{
						"node":7,
						"path":"translation"
					}
				}
			],
			"name":"G0_DM_switchAction.001",
			"samplers":[
				{
					"input":33,
					"interpolation":"LINEAR",
					"output":35
				}
			]
		}
	],
	"materials":[
		{
			"doubleSided":true,
			"name":"G0_SM_sol",
			"pbrMetallicRoughness":{
				"baseColorTexture":{
					"index":0
				},
				"metallicFactor":0,
				"roughnessFactor":0.8590909242630005
			}
		},
		{
			"doubleSided":true,
			"name":"G0_SM_murs",
			"pbrMetallicRoughness":{
				"baseColorTexture":{
					"index":1
				},
				"metallicFactor":0,
				"roughnessFactor":0.7863636016845703
			}
		},
		{
			"doubleSided":true,
			"name":"G0_SM_misc",
			"pbrMetallicRoughness":{
				"baseColorTexture":{
					"index":2
				},
				"metallicFactor":0,
				"roughnessFactor":0.5
			}
		},
		{
			"doubleSided":true,
			"name":"G0_SM_finitions",
			"pbrMetallicRoughness":{
				"baseColorTexture":{
					"index":3
				},
				"metallicFactor":0,
				"roughnessFactor":0.8590909242630005
			}
		},
		{
			"doubleSided":true,
			"name":"G0_SM_boiserie",
			"pbrMetallicRoughness":{
				"baseColorTexture":{
					"index":4
				},
				"metallicFactor":0,
				"roughnessFactor":0.5
			}
		},
		{
			"doubleSided":true,
			"emissiveFactor":[
				0.6000000238418579,
				0.6000000238418579,
				0.6000000238418579
			],
			"emissiveTexture":{
				"index":5
			},
			"name":"G0_fenetres",
			"pbrMetallicRoughness":{
				"baseColorTexture":{
					"index":6
				},
				"metallicFactor":0,
				"roughnessFactor":0.5
			}
		}
	],
	"meshes":[
		{
			"name":"Plane.001",
			"primitives":[
				{
					"attributes":{
						"POSITION":0,
						"NORMAL":1,
						"TEXCOORD_0":2
					},
					"indices":3,
					"material":0
				}
			]
		},
		{
			"name":"Cube.002",
			"primitives":[
				{
					"attributes":{
						"POSITION":4,
						"NORMAL":5,
						"TEXCOORD_0":6,
						"TEXCOORD_1":7
					},
					"indices":8,
					"material":1
				}
			]
		},
		{
			"name":"Cube.001",
			"primitives":[
				{
					"attributes":{
						"POSITION":9,
						"NORMAL":10,
						"TEXCOORD_0":11,
						"TEXCOORD_1":12
					},
					"indices":13,
					"material":2
				}
			]
		},
		{
			"name":"Cube.004",
			"primitives":[
				{
					"attributes":{
						"POSITION":14,
						"NORMAL":15,
						"TEXCOORD_0":16
					},
					"indices":17,
					"material":3
				}
			]
		},
		{
			"name":"windows.002",
			"primitives":[
				{
					"attributes":{
						"POSITION":18,
						"NORMAL":19,
						"TEXCOORD_0":20
					},
					"indices":21,
					"material":4
				}
			]
		},
		{
			"name":"Cube.011",
			"primitives":[
				{
					"attributes":{
						"POSITION":22,
						"NORMAL":23,
						"TEXCOORD_0":24
					},
					"indices":25,
					"material":5
				}
			]
		},
		{
			"name":"Cube.016",
			"primitives":[
				{
					"attributes":{
						"POSITION":26,
						"NORMAL":27,
						"TEXCOORD_0":28
					},
					"indices":29,
					"material":2
				}
			]
		},
		{
			"name":"Cube.014",
			"primitives":[
				{
					"attributes":{
						"POSITION":30,
						"NORMAL":31,
						"TEXCOORD_0":32
					},
					"indices":29,
					"material":2
				}
			]
		}
	],
	"textures":[
		{
			"extensions":{
				"EXT_texture_webp":{
					"source":0
				}
			},
			"sampler":0
		},
		{
			"extensions":{
				"EXT_texture_webp":{
					"source":1
				}
			},
			"sampler":0
		},
		{
			"extensions":{
				"EXT_texture_webp":{
					"source":2
				}
			},
			"sampler":0
		},
		{
			"extensions":{
				"EXT_texture_webp":{
					"source":3
				}
			},
			"sampler":0
		},
		{
			"extensions":{
				"EXT_texture_webp":{
					"source":4
				}
			},
			"sampler":0
		},
		{
			"extensions":{
				"EXT_texture_webp":{
					"source":5
				}
			},
			"sampler":0
		},
		{
			"extensions":{
				"EXT_texture_webp":{
					"source":5
				}
			},
			"sampler":0
		}
	],
	"images":[
		{
			"mimeType":"image/webp",
			"name":"G0_SM_sol_combined",
			"uri":"tex/G0_SM_sol_combined.webp"
		},
		{
			"mimeType":"image/webp",
			"name":"G0_SM_murs_combined",
			"uri":"tex/G0_SM_murs_combined.webp"
		},
		{
			"mimeType":"image/webp",
			"name":"G0_SM_misc_combined",
			"uri":"tex/G0_SM_misc_combined.webp"
		},
		{
			"mimeType":"image/webp",
			"name":"G0_SM_finitions_combined",
			"uri":"tex/G0_SM_finitions_combined.webp"
		},
		{
			"mimeType":"image/webp",
			"name":"G0_SM_boiserie_combined",
			"uri":"tex/G0_SM_boiserie_combined.webp"
		},
		{
			"mimeType":"image/webp",
			"name":"G0_SM_fenetres_combined",
			"uri":"tex/G0_SM_fenetres_combined.webp"
		}
	],
	"accessors":[
		{
			"bufferView":0,
			"componentType":5126,
			"count":2408,
			"max":[
				0.3478035628795624,
				0.3932052552700043,
				11.425216674804688
			],
			"min":[
				-12.136996269226074,
				0,
				-1.0616114139556885
			],
			"type":"VEC3"
		},
		{
			"bufferView":1,
			"componentType":5126,
			"count":2408,
			"type":"VEC3"
		},
		{
			"bufferView":2,
			"componentType":5126,
			"count":2408,
			"type":"VEC2"
		},
		{
			"bufferView":3,
			"componentType":5123,
			"count":3810,
			"type":"SCALAR"
		},
		{
			"bufferView":4,
			"componentType":5126,
			"count":317,
			"max":[
				4.200896263122559,
				4.5,
				4.199999809265137
			],
			"min":[
				-4.199999809265137,
				0.2665879726409912,
				-4.199429512023926
			],
			"type":"VEC3"
		},
		{
			"bufferView":5,
			"componentType":5126,
			"count":317,
			"type":"VEC3"
		},
		{
			"bufferView":6,
			"componentType":5126,
			"count":317,
			"type":"VEC2"
		},
		{
			"bufferView":7,
			"componentType":5126,
			"count":317,
			"type":"VEC2"
		},
		{
			"bufferView":8,
			"componentType":5123,
			"count":1032,
			"type":"SCALAR"
		},
		{
			"bufferView":9,
			"componentType":5126,
			"count":1956,
			"max":[
				4.899774074554443,
				3.6279752254486084,
				8.716682434082031
			],
			"min":[
				-0.9157356023788452,
				-0.3411456048488617,
				-0.3202350437641144
			],
			"type":"VEC3"
		},
		{
			"bufferView":10,
			"componentType":5126,
			"count":1956,
			"type":"VEC3"
		},
		{
			"bufferView":11,
			"componentType":5126,
			"count":1956,
			"type":"VEC2"
		},
		{
			"bufferView":12,
			"componentType":5126,
			"count":1956,
			"type":"VEC2"
		},
		{
			"bufferView":13,
			"componentType":5123,
			"count":5844,
			"type":"SCALAR"
		},
		{
			"bufferView":14,
			"componentType":5126,
			"count":1767,
			"max":[
				2.4539427757263184,
				3.103147029876709,
				8.807188034057617
			],
			"min":[
				-8.888450622558594,
				-1.5438847541809082,
				-0.19281268119812012
			],
			"type":"VEC3"
		},
		{
			"bufferView":15,
			"componentType":5126,
			"count":1767,
			"type":"VEC3"
		},
		{
			"bufferView":16,
			"componentType":5126,
			"count":1767,
			"type":"VEC2"
		},
		{
			"bufferView":17,
			"componentType":5123,
			"count":3027,
			"type":"SCALAR"
		},
		{
			"bufferView":18,
			"componentType":5126,
			"count":1841,
			"max":[
				3.9687247276306152,
				4.1800007820129395,
				3.614246368408203
			],
			"min":[
				-3.1387009620666504,
				0.6774551868438721,
				-3.9650821685791016
			],
			"type":"VEC3"
		},
		{
			"bufferView":19,
			"componentType":5126,
			"count":1841,
			"type":"VEC3"
		},
		{
			"bufferView":20,
			"componentType":5126,
			"count":1841,
			"type":"VEC2"
		},
		{
			"bufferView":21,
			"componentType":5123,
			"count":5211,
			"type":"SCALAR"
		},
		{
			"bufferView":22,
			"componentType":5126,
			"count":123,
			"max":[
				3.7851500511169434,
				3.599276542663574,
				8.685525894165039
			],
			"min":[
				-3.5942482948303223,
				0.7573686242103577,
				1.0534441471099854
			],
			"type":"VEC3"
		},
		{
			"bufferView":23,
			"componentType":5126,
			"count":123,
			"type":"VEC3"
		},
		{
			"bufferView":24,
			"componentType":5126,
			"count":123,
			"type":"VEC2"
		},
		{
			"bufferView":25,
			"componentType":5123,
			"count":342,
			"type":"SCALAR"
		},
		{
			"bufferView":26,
			"componentType":5126,
			"count":116,
			"max":[
				0.10289270430803299,
				0.10289270430803299,
				0.10289270430803299
			],
			"min":[
				0.0036737157497555017,
				-0.10289270430803299,
				-0.10289270430803299
			],
			"type":"VEC3"
		},
		{
			"bufferView":27,
			"componentType":5126,
			"count":116,
			"type":"VEC3"
		},
		{
			"bufferView":28,
			"componentType":5126,
			"count":116,
			"type":"VEC2"
		},
		{
			"bufferView":29,
			"componentType":5123,
			"count":294,
			"type":"SCALAR"
		},
		{
			"bufferView":30,
			"componentType":5126,
			"count":116,
			"max":[
				0.10289270430803299,
				0.10289270430803299,
				0.10289270430803299
			],
			"min":[
				0.0036737157497555017,
				-0.10289270430803299,
				-0.10289270430803299
			],
			"type":"VEC3"
		},
		{
			"bufferView":31,
			"componentType":5126,
			"count":116,
			"type":"VEC3"
		},
		{
			"bufferView":32,
			"componentType":5126,
			"count":116,
			"type":"VEC2"
		},
		{
			"bufferView":33,
			"componentType":5126,
			"count":9,
			"max":[
				0.375
			],
			"min":[
				0.041666666666666664
			],
			"type":"SCALAR"
		},
		{
			"bufferView":34,
			"componentType":5126,
			"count":9,
			"type":"VEC3"
		},
		{
			"bufferView":35,
			"componentType":5126,
			"count":9,
			"type":"VEC3"
		}
	],
	"bufferViews":[
		{
			"buffer":0,
			"byteLength":28896,
			"byteOffset":0,
			"target":34962
		},
		{
			"buffer":0,
			"byteLength":28896,
			"byteOffset":28896,
			"target":34962
		},
		{
			"buffer":0,
			"byteLength":19264,
			"byteOffset":57792,
			"target":34962
		},
		{
			"buffer":0,
			"byteLength":7620,
			"byteOffset":77056,
			"target":34963
		},
		{
			"buffer":0,
			"byteLength":3804,
			"byteOffset":84676,
			"target":34962
		},
		{
			"buffer":0,
			"byteLength":3804,
			"byteOffset":88480,
			"target":34962
		},
		{
			"buffer":0,
			"byteLength":2536,
			"byteOffset":92284,
			"target":34962
		},
		{
			"buffer":0,
			"byteLength":2536,
			"byteOffset":94820,
			"target":34962
		},
		{
			"buffer":0,
			"byteLength":2064,
			"byteOffset":97356,
			"target":34963
		},
		{
			"buffer":0,
			"byteLength":23472,
			"byteOffset":99420,
			"target":34962
		},
		{
			"buffer":0,
			"byteLength":23472,
			"byteOffset":122892,
			"target":34962
		},
		{
			"buffer":0,
			"byteLength":15648,
			"byteOffset":146364,
			"target":34962
		},
		{
			"buffer":0,
			"byteLength":15648,
			"byteOffset":162012,
			"target":34962
		},
		{
			"buffer":0,
			"byteLength":11688,
			"byteOffset":177660,
			"target":34963
		},
		{
			"buffer":0,
			"byteLength":21204,
			"byteOffset":189348,
			"target":34962
		},
		{
			"buffer":0,
			"byteLength":21204,
			"byteOffset":210552,
			"target":34962
		},
		{
			"buffer":0,
			"byteLength":14136,
			"byteOffset":231756,
			"target":34962
		},
		{
			"buffer":0,
			"byteLength":6054,
			"byteOffset":245892,
			"target":34963
		},
		{
			"buffer":0,
			"byteLength":22092,
			"byteOffset":251948,
			"target":34962
		},
		{
			"buffer":0,
			"byteLength":22092,
			"byteOffset":274040,
			"target":34962
		},
		{
			"buffer":0,
			"byteLength":14728,
			"byteOffset":296132,
			"target":34962
		},
		{
			"buffer":0,
			"byteLength":10422,
			"byteOffset":310860,
			"target":34963
		},
		{
			"buffer":0,
			"byteLength":1476,
			"byteOffset":321284,
			"target":34962
		},
		{
			"buffer":0,
			"byteLength":1476,
			"byteOffset":322760,
			"target":34962
		},
		{
			"buffer":0,
			"byteLength":984,
			"byteOffset":324236,
			"target":34962
		},
		{
			"buffer":0,
			"byteLength":684,
			"byteOffset":325220,
			"target":34963
		},
		{
			"buffer":0,
			"byteLength":1392,
			"byteOffset":325904,
			"target":34962
		},
		{
			"buffer":0,
			"byteLength":1392,
			"byteOffset":327296,
			"target":34962
		},
		{
			"buffer":0,
			"byteLength":928,
			"byteOffset":328688,
			"target":34962
		},
		{
			"buffer":0,
			"byteLength":588,
			"byteOffset":329616,
			"target":34963
		},
		{
			"buffer":0,
			"byteLength":1392,
			"byteOffset":330204,
			"target":34962
		},
		{
			"buffer":0,
			"byteLength":1392,
			"byteOffset":331596,
			"target":34962
		},
		{
			"buffer":0,
			"byteLength":928,
			"byteOffset":332988,
			"target":34962
		},
		{
			"buffer":0,
			"byteLength":36,
			"byteOffset":333916
		},
		{
			"buffer":0,
			"byteLength":108,
			"byteOffset":333952
		},
		{
			"buffer":0,
			"byteLength":108,
			"byteOffset":334060
		}
	],
	"samplers":[
		{
			"magFilter":9729,
			"minFilter":9987
		}
	],
	"buffers":[
		{
			"byteLength":334168,
			"uri":"G0_SM_exterieur.bin"
		}
	]
}
